<svg  height='100px' width='100px'  fill="#000000" xmlns="http://www.w3.org/2000/svg" xmlns:xlink="http://www.w3.org/1999/xlink" xml:space="preserve" version="1.1" style="shape-rendering:geometricPrecision;text-rendering:geometricPrecision;image-rendering:optimizeQuality;" viewBox="0 0 325 310" x="0px" y="0px" fill-rule="evenodd" clip-rule="evenodd"><g><path class="fil0" d="M190 141l95 -116 -245 0 96 116c2,3 3,6 3,9l0 104 47 23 0 -128c0,-3 2,-6 4,-8zm132 -120l-110 133 0 143c0,10 -10,16 -18,12l-73 -35c-4,-2 -8,-6 -8,-12l0 -108 -110 -133c-7,-8 -1,-21 10,-21l299 0c11,0 17,12 10,21z"></path></g></svg>